#!OML:ASF E:\motion texture\Top Level 1\Subject 1\Session 1\male.ASF
:FULLY-SPECIFIED
:DEGREES
112
root 17.7758 17.8598 4.13387 104.631 -76.8114 -107.192
lowerback 5.19437 4.47818 11.9842
upperback -0.169019 6.65392 3.46743
thorax -2.14813 3.12673 -3.43495
lowerneck -17.662 -6.99378 -8.72858
upperneck 12.659 -8.80166 8.60635
head 7.56577 -3.8846 3.18376
rclavicle -6.13398e-014 4.80065e-014
rhumerus 11.1864 19.1268 -73.9678
rradius 68.62
rwrist -7.23344
rhand -9.36478 -9.88121
rfingers 7.12502
rthumb 16.5953 -39.1917
lclavicle -6.13398e-014 4.80065e-014
lhumerus -67.9437 -9.76541 77.259
lradius 50.301
lwrist -3.38817
lhand 1.61492 6.71366
lfingers 7.12502
lthumb 27.1363 34.7829
rfemur 7.31726 5.515 39.163
rtibia 22.2982
rfoot -14.1105 -6.39935
rtoes 2.03091
lfemur -83.8804 6.85148 -9.86212
ltibia 88.4193
lfoot 241.855 84.278
ltoes 13.7099
113
root 17.6291 17.8516 4.13374 105.203 -76.7702 -107.376
lowerback 4.88955 4.49994 11.9341
upperback -0.272008 6.64361 3.43216
thorax -2.08846 3.12312 -3.42136
lowerneck -17.6837 -6.97931 -8.71184
upperneck 12.5877 -8.79459 8.68964
head 7.54902 -3.87338 3.20929
rclavicle -3.31248e-014 -3.44891e-014
rhumerus 10.5607 19.2172 -74.3623
rradius 68.5432
rwrist -7.22891
rhand -9.30637 -9.87769
rfingers 7.12502
rthumb 16.6515 -39.1834
lclavicle -3.31248e-014 -3.44891e-014
lhumerus -67.6741 -9.69749 77.6601
lradius 50.3706
lwrist -3.43724
lhand 1.64751 6.66404
lfingers 7.12502
lthumb 27.1674 34.7284
rfemur 7.39683 5.58403 39.1338
rtibia 22.3404
rfoot -14.1677 -6.22909
rtoes 1.36853
lfemur -82.9488 7.13574 -9.81997
ltibia 89.0384
lfoot 361.022 81.4083
ltoes 13.4515
114
root 17.4807 17.8425 4.13391 105.933 -76.726 -107.687
lowerback 4.55873 4.52865 11.8802
upperback -0.389783 6.64003 3.38626
thorax -2.02786 3.12251 -3.41523
lowerneck -17.7006 -6.95859 -8.68175
upperneck 12.5232 -8.78284 8.77012
head 7.53254 -3.8597 3.23248
rclavicle 3.57517e-014 -3.83654e-014
rhumerus 9.88487 19.3428 -74.7768
rradius 68.4227
rwrist -7.16703
rhand -9.25709 -9.86583
rfingers 7.12502
rthumb 16.6989 -39.1676
lclavicle 3.57517e-014 -3.83654e-014
lhumerus -67.4145 -9.64371 78.0631
lradius 50.4887
lwrist -3.49165
lhand 1.7283 6.64428
lfingers 7.12502
lthumb 27.2447 34.6965
rfemur 7.46363 5.66641 39.0959
rtibia 22.3616
rfoot -14.221 -6.06982
rtoes 0.741822
lfemur -81.9357 7.48134 -9.78238
ltibia 89.0262
lfoot 375.724 69.5411
ltoes 13.4159
115
root 17.3305 17.8323 4.13457 106.811 -76.6729 -108.123
lowerback 4.20508 4.56126 11.8248
upperback -0.51349 6.63869 3.33804
thorax -1.9601 3.12313 -3.40883
lowerneck -17.7189 -6.92958 -8.64531
upperneck 12.4602 -8.76025 8.84464
head 7.51521 -3.84107 3.2541
rclavicle 4.74439e-014 -1.95803e-014
rhumerus 9.17626 19.5153 -75.1998
rradius 68.2627
rwrist -7.06321
rhand -9.2149 -9.87047
rfingers 7.12502
rthumb 16.7396 -39.1688
lclavicle 4.74439e-014 -1.95803e-014
lhumerus -67.1611 -9.58507 78.4676
lradius 50.6569
lwrist -3.55481
lhand 1.82906 6.63809
lfingers 7.12502
lthumb 27.3411 34.6752
rfemur 7.52993 5.754 39.051
rtibia 22.3559
rfoot -14.2713 -5.91253
rtoes 0.137363
lfemur -80.8314 7.88596 -9.73796
ltibia 88.3595
lfoot 380.022 57.4712
ltoes 13.4754
116
root 17.1787 17.821 4.13566 107.806 -76.607 -108.666
lowerback 3.83606 4.59597 11.7728
upperback -0.636189 6.63784 3.2903
thorax -1.88211 3.12435 -3.40215
lowerneck -17.743 -6.89257 -8.60345
upperneck 12.397 -8.72619 8.91191
head 7.49713 -3.81723 3.27387
rclavicle 4.04325e-014 1.78906e-015
rhumerus 8.44291 19.7278 -75.6298
rradius 68.0687
rwrist -6.9301
rhand -9.14344 -9.87821
rfingers 7.12502
rthumb 16.8084 -39.1707
lclavicle 4.04325e-014 1.78906e-015
lhumerus -66.905 -9.51811 78.8719
lradius 50.8719
lwrist -3.61466
lhand 1.91708 6.65493
lfingers 7.12502
lthumb 27.4253 34.6787
rfemur 7.60694 5.84827 39.005
rtibia 22.3216
rfoot -14.3176 -5.75918
rtoes -0.452062
lfemur -79.6274 8.34248 -9.67817
ltibia 87.0817
lfoot 382.351 45.4753
ltoes 13.5079
117
root 17.0247 17.8084 4.13739 108.926 -76.5313 -109.326
lowerback 3.44844 4.63295 11.7226
upperback -0.755483 6.63689 3.24241
thorax -1.78973 3.12621 -3.39454
lowerneck -17.7687 -6.84721 -8.55815
upperneck 12.329 -8.67948 8.97089
head 7.47603 -3.78794 3.292
rclavicle -4.88983e-015 -7.22582e-014
rhumerus 7.68598 19.9763 -76.0687
rradius 67.8451
rwrist -6.78852
rhand -9.04629 -9.9034
rfingers 7.12502
rthumb 16.9019 -39.1879
lclavicle -4.88983e-015 -7.22582e-014
lhumerus -66.6412 -9.44289 79.2793
lradius 51.1255
lwrist -3.65614
lhand 1.96877 6.72039
lfingers 7.12502
lthumb 27.4747 34.7363
rfemur 7.69901 5.95426 38.9512
rtibia 22.2642
rfoot -14.3646 -5.60394
rtoes -1.01666
lfemur -78.321 8.84548 -9.60432
ltibia 85.3011
lfoot 383.96 33.586
ltoes 13.4368
